<?xml version="1.0" encoding="iso-8859-1"?>
<!-- Uploaded to: SVG Repo, www.svgrepo.com, Generator: SVG Repo Mixer Tools -->
<svg xmlns="http://www.w3.org/2000/svg" xmlns:xlink="http://www.w3.org/1999/xlink" version="1.1" id="Layer_1"  viewBox="0 0 421.48 421.48" xml:space="preserve" width="512" height="512">
<g>
	<path style="fill:#F7B239;" d="M285.733,115.489v0.01h-46.49v-0.01v-84.74c0-12.84,10.4-23.25,23.24-23.25s23.25,10.41,23.25,23.25   V115.489z"/>
	<path style="fill:#2197D8;" d="M301.693,388.479l-0.3,8.62c-0.32,9.42-8.05,16.88-17.47,16.88h-146.36   c-9.42,0-17.15-7.46-17.47-16.88l-0.3-8.62H301.693z"/>
	<path style="fill:#E6E6E6;" d="M333.093,209.989l-2.96,67.38c-6.57,5.3-13.49,10.15-20.69,14.52   c-29.23,17.73-63.23,27.59-98.7,27.59c-44.22,0-86.14-15.32-119.39-42.1l-2.97-67.39H333.093z"/>
	<path style="fill:#2BA5F7;" d="M330.133,277.369l-4.11,93.56c-0.43,9.82-8.52,17.55-18.34,17.55h-5.99h-181.9h-5.99   c-9.83,0-17.91-7.73-18.34-17.55l-4.11-93.55c33.25,26.78,75.17,42.1,119.39,42.1c35.47,0,69.47-9.86,98.7-27.59   C316.643,287.519,323.563,282.669,330.133,277.369z"/>
	<polygon style="fill:#2BA5F7;" points="337.243,115.499 333.093,209.989 88.383,209.989 84.233,115.499 239.243,115.499    285.733,115.499  "/>
	<path style="fill:#CCCCCC;" d="M148.243,308.929c-20.66-7.18-39.9-17.87-56.89-31.55l-2.97-67.39h55.5l2.97,67.39L148.243,308.929z   "/>
	<path style="fill:#2197D8;" d="M169.303,388.479h-55.5c-9.83,0-17.91-7.73-18.34-17.55l-4.11-93.55   c16.99,13.68,36.23,24.37,56.89,31.55l2.72,62C151.393,380.749,159.473,388.479,169.303,388.479z"/>
	<polygon style="fill:#2197D8;" points="143.883,209.989 88.383,209.989 84.233,115.499 139.733,115.499  "/>
	<path style="fill:#333333;" d="M381.731,107.994h-44.485h-44.013V30.75c0-16.956-13.794-30.75-30.75-30.75   c-16.95,0-30.74,13.794-30.74,30.75v77.244H84.234H39.749c-4.143,0-7.5,3.358-7.5,7.5s3.357,7.5,7.5,7.5h37.307L87.966,371.26   c0.592,13.443,11.281,24.061,24.581,24.691l0.049,1.412c0.466,13.524,11.431,24.118,24.964,24.118h146.367   c13.531,0,24.497-10.594,24.964-24.118l0.049-1.413c13.299-0.633,23.984-11.25,24.574-24.691l10.91-248.265h37.307   c4.143,0,7.5-3.358,7.5-7.5S385.874,107.994,381.731,107.994z M246.743,30.75c0-8.685,7.062-15.75,15.74-15.75   c8.685,0,15.75,7.065,15.75,15.75v77.244h-31.49V30.75z M322.791,273.584c-5.495,4.266-11.269,8.271-17.237,11.893   c-28.585,17.338-61.37,26.503-94.811,26.503c-40.459,0-80.112-13.604-112.053-38.367l-2.466-56.123h229.032L322.791,273.584z    M283.927,406.48H137.559c-5.406,0-9.787-4.232-9.974-9.635l-0.03-0.864H293.93l-0.03,0.864   C293.713,402.248,289.333,406.48,283.927,406.48z M307.682,380.981H113.798c-5.826,0-10.59-4.56-10.846-10.38l-3.421-77.854   c32.66,22.166,71.579,34.234,111.212,34.234c36.185,0,71.659-9.917,102.592-28.679c2.92-1.772,5.785-3.647,8.615-5.572   l-3.422,77.872C318.272,376.422,313.508,380.981,307.682,380.981z M325.915,202.49H95.565l-3.493-79.496h237.338L325.915,202.49z"/>
	<circle style="fill:#FFFFFF;" cx="263.725" cy="28.355" r="7.5"/>
	<circle style="fill:#FFFFFF;" cx="312.99" cy="141.483" r="7.5"/>
	<path style="fill:#FFFFFF;" d="M303.246,372.979c-0.111,0-0.223-0.002-0.335-0.007c-4.139-0.182-7.346-3.684-7.164-7.822   l8.244-187.669c0.183-4.138,3.68-7.344,7.822-7.164c4.138,0.182,7.346,3.684,7.164,7.822l-8.244,187.669   C310.556,369.834,307.236,372.979,303.246,372.979z"/>
</g>















</svg>